<?xml version="1.0" encoding="UTF-8" ?>
<!DOCTYPE svg PUBLIC "-//W3C//DTD SVG 1.1//EN" "http://www.w3.org/Graphics/SVG/1.1/DTD/svg11.dtd">
<svg width="1645pt" height="719pt" viewBox="0 0 1645 719" version="1.1" xmlns="http://www.w3.org/2000/svg">
<g id="#c03535ff">
<path fill="#c03535" opacity="1.00" d=" M 535.69 28.75 C 608.81 6.93 689.36 10.78 759.93 39.91 C 817.38 63.43 868.01 103.48 903.71 154.31 C 930.22 191.88 948.44 235.29 956.42 280.59 C 944.39 280.61 932.36 280.59 920.34 280.60 C 908.14 218.48 873.83 161.30 825.68 120.36 C 799.27 97.77 768.81 79.93 736.21 67.88 C 663.22 40.78 579.66 43.51 508.73 75.69 C 456.92 98.98 412.03 137.55 381.71 185.63 C 363.36 214.60 350.35 246.95 343.67 280.60 C 331.64 280.59 319.61 280.61 307.58 280.59 C 318.83 216.09 351.21 155.74 397.91 109.97 C 436.26 72.15 484.05 44.05 535.69 28.75 Z" />
</g>
<g id="#f6f307ff">
<path fill="#f6f307" opacity="1.00" d=" M 636.91 151.30 C 667.07 166.24 691.86 192.20 704.55 223.47 C 711.41 240.11 714.81 258.07 715.27 276.04 C 715.83 302.05 710.30 327.92 701.11 352.17 C 698.67 358.90 695.55 365.35 692.91 372.00 C 699.59 369.10 704.58 363.51 708.72 357.70 C 716.43 346.54 721.65 333.81 725.17 320.75 C 736.56 333.67 744.93 349.15 750.35 365.46 C 757.31 386.49 758.09 409.92 750.57 430.91 C 741.49 456.39 721.72 476.53 699.74 491.51 C 703.92 472.95 699.51 451.71 685.73 438.09 C 686.94 444.89 684.09 451.61 680.16 457.02 C 674.89 464.31 668.48 470.67 662.97 477.76 C 666.25 466.46 666.69 454.46 664.64 442.90 C 661.08 421.53 651.17 402.03 644.76 381.51 C 641.51 370.71 639.22 358.93 642.75 347.90 C 625.87 357.22 611.61 371.18 601.88 387.83 C 583.90 418.11 581.26 456.81 594.98 489.24 C 579.07 479.25 564.21 467.33 551.91 453.07 C 539.51 438.68 530.39 421.08 527.89 402.11 C 526.13 387.90 527.35 373.34 531.42 359.60 C 536.43 342.82 544.02 326.63 555.11 312.98 C 578.78 283.25 609.39 259.70 631.73 228.83 C 640.80 215.93 648.78 201.12 648.82 184.96 C 649.17 172.71 643.95 161.05 636.91 151.30 Z" />
</g>
<g id="#f9fbfcff">
<path fill="#f9fbfc" opacity="1.00" d=" M 137.32 304.07 C 151.71 293.34 170.26 287.88 188.14 290.50 C 198.11 291.94 207.73 296.98 213.81 305.12 C 222.26 316.48 221.22 333.45 212.32 344.26 C 207.27 350.74 199.97 355.09 192.25 357.65 C 197.76 376.01 205.74 393.67 216.31 409.67 C 219.33 414.53 223.38 418.66 226.82 423.16 C 217.10 427.24 208.23 433.02 200.05 439.63 C 196.99 415.64 192.62 391.68 184.77 368.76 C 179.98 371.29 174.73 372.78 169.45 373.86 C 169.44 386.35 169.43 398.84 169.45 411.33 C 174.23 417.89 179.46 424.15 183.90 430.95 C 169.61 430.92 155.32 430.94 141.04 430.94 C 140.53 429.83 140.03 428.73 139.53 427.63 C 152.42 427.43 165.31 427.61 178.20 427.53 C 174.38 422.44 170.52 417.38 166.71 412.27 C 166.74 398.50 166.72 384.72 166.72 370.94 C 172.62 370.14 178.53 368.94 183.91 366.29 C 183.41 364.59 182.91 362.89 182.42 361.20 C 176.00 363.10 169.36 364.05 162.77 365.18 C 162.79 380.11 162.78 395.04 162.78 409.97 C 165.89 414.21 169.42 418.15 172.28 422.57 C 159.91 422.57 147.53 422.87 135.17 422.42 C 138.72 418.21 142.44 414.14 146.06 409.99 C 146.05 398.79 146.07 387.59 146.05 376.40 C 142.71 377.35 139.42 378.46 136.22 379.82 C 136.01 379.12 135.60 377.72 135.39 377.02 C 138.83 375.45 142.42 374.23 146.06 373.22 C 146.05 371.63 146.05 370.05 146.05 368.48 C 141.56 368.84 137.24 370.13 133.02 371.64 C 133.90 367.32 135.22 363.11 136.22 358.83 C 139.42 359.13 142.64 359.21 145.85 359.05 C 145.99 342.46 145.90 325.86 145.89 309.27 C 143.15 307.35 140.25 305.69 137.32 304.07 M 162.76 301.62 C 162.82 319.73 162.76 337.83 162.79 355.94 C 164.10 355.80 165.40 355.65 166.71 355.51 C 166.71 338.82 166.77 322.14 166.68 305.46 C 172.75 303.51 179.38 303.28 185.59 304.72 C 192.12 306.30 197.78 311.28 199.84 317.73 C 196.84 315.33 194.21 312.48 190.94 310.43 C 184.66 306.26 176.51 306.14 169.42 308.01 C 169.50 323.79 169.38 339.58 169.48 355.36 C 179.50 352.93 190.19 349.18 196.47 340.47 C 201.07 334.02 202.21 325.61 200.93 317.92 C 199.42 308.90 192.45 300.90 183.51 298.68 C 176.56 297.08 168.91 297.87 162.76 301.62 Z" />
<path fill="#f9fbfc" opacity="1.00" d=" M 880.74 303.78 C 885.30 296.75 892.69 291.55 900.99 290.03 C 911.43 288.05 922.05 290.65 931.94 293.94 C 935.97 295.25 940.59 296.62 944.56 294.35 C 946.27 293.75 947.70 291.83 949.68 292.50 C 946.61 298.38 943.67 304.36 941.83 310.76 C 939.72 316.44 938.43 322.52 935.34 327.78 C 933.49 321.88 932.60 315.59 929.55 310.15 C 925.37 303.49 918.22 297.95 910.05 298.10 C 904.76 297.90 899.43 299.95 895.78 303.80 C 889.78 309.67 888.41 319.18 891.22 326.90 C 893.46 333.04 898.95 337.36 904.82 339.85 C 915.64 344.36 927.85 345.56 937.75 352.22 C 945.31 357.11 950.74 365.05 952.61 373.86 C 955.42 386.81 953.52 401.43 944.89 411.88 C 938.55 420.06 928.39 425.20 917.97 424.76 C 905.85 424.90 894.65 419.79 883.07 417.05 C 877.71 415.55 872.26 417.46 867.91 420.60 C 866.52 418.88 868.10 417.28 868.72 415.75 C 874.27 405.09 878.78 393.85 881.56 382.15 C 882.03 382.28 882.96 382.55 883.43 382.68 C 884.46 391.61 887.18 400.81 893.57 407.43 C 900.92 415.36 912.73 417.85 923.04 415.61 C 930.20 414.09 936.40 408.61 938.46 401.54 C 940.68 393.76 939.72 384.84 934.96 378.16 C 931.24 372.50 924.99 369.36 918.79 367.18 C 908.40 363.14 896.58 362.48 887.40 355.62 C 880.04 350.57 876.12 341.83 875.22 333.15 C 874.03 323.15 875.04 312.36 880.74 303.78 Z" />
<path fill="#f9fbfc" opacity="1.00" d=" M 1308.97 305.85 C 1323.21 293.23 1343.15 287.25 1361.99 290.11 C 1372.02 291.66 1381.61 297.05 1387.42 305.49 C 1392.91 313.37 1394.16 323.61 1392.31 332.88 C 1391.06 339.03 1387.53 344.70 1382.45 348.41 C 1379.76 350.53 1376.52 351.69 1373.58 353.36 C 1375.26 353.90 1376.93 354.87 1378.76 354.89 C 1386.98 352.56 1393.07 345.41 1395.60 337.44 C 1398.89 326.83 1397.86 314.72 1391.97 305.20 C 1390.74 302.78 1388.27 301.00 1387.85 298.22 C 1394.65 303.81 1398.90 312.22 1399.79 320.94 C 1400.74 329.68 1399.52 339.05 1394.52 346.46 C 1391.48 351.05 1387.01 354.49 1382.15 356.98 C 1396.79 365.81 1401.49 385.37 1396.80 401.08 C 1393.92 411.17 1385.33 419.36 1375.05 421.59 C 1367.82 423.22 1360.35 422.44 1353.01 422.63 C 1337.61 422.51 1322.21 422.87 1306.82 422.44 C 1310.60 418.23 1314.58 414.19 1318.41 410.03 C 1318.41 395.56 1318.41 381.09 1318.41 366.61 C 1314.60 366.73 1310.84 367.25 1307.10 367.88 C 1306.87 366.65 1306.67 365.42 1306.50 364.20 C 1310.45 363.74 1314.42 363.37 1318.41 363.26 C 1318.40 361.70 1318.39 360.14 1318.41 358.59 C 1313.83 358.58 1309.28 358.97 1304.74 359.45 C 1305.87 355.94 1307.23 352.52 1308.45 349.05 C 1311.77 349.24 1315.09 349.39 1318.42 349.54 C 1318.39 337.05 1318.43 324.55 1318.40 312.05 C 1315.24 309.99 1312.12 307.90 1308.97 305.85 M 1335.34 304.34 C 1335.29 319.42 1335.35 334.51 1335.31 349.59 C 1336.21 349.59 1338.01 349.59 1338.90 349.59 C 1338.75 335.90 1338.82 322.21 1338.86 308.53 C 1344.92 303.95 1353.53 302.95 1360.75 305.23 C 1367.34 307.36 1370.87 314.04 1372.95 320.19 C 1368.45 318.09 1367.42 312.40 1363.05 310.01 C 1356.69 305.46 1347.45 305.95 1341.56 311.08 C 1341.54 323.94 1341.56 336.80 1341.55 349.67 C 1348.90 349.74 1356.55 349.43 1363.29 346.16 C 1369.01 343.52 1373.15 338.05 1374.45 331.91 C 1376.24 323.27 1375.54 313.39 1369.91 306.23 C 1365.99 301.00 1359.49 298.01 1352.99 298.16 C 1346.56 297.93 1340.47 300.67 1335.34 304.34 M 1335.30 358.73 C 1335.36 377.13 1335.31 395.53 1335.32 413.93 C 1336.47 413.93 1337.64 413.93 1338.83 413.94 C 1338.82 397.34 1338.83 380.74 1338.82 364.14 C 1346.89 363.34 1355.17 363.24 1363.09 365.23 C 1369.22 366.68 1374.46 371.70 1376.09 377.79 C 1376.59 377.18 1377.12 376.59 1377.67 376.00 C 1376.30 370.11 1373.04 364.11 1367.07 361.88 C 1357.03 357.93 1345.90 357.96 1335.30 358.73 M 1341.59 367.21 C 1341.51 382.79 1341.57 398.38 1341.56 413.97 C 1351.40 413.43 1362.72 414.79 1370.70 407.73 C 1379.24 399.98 1378.98 387.29 1377.96 376.74 C 1377.39 377.77 1376.84 378.80 1376.31 379.84 C 1373.54 376.63 1371.35 372.74 1367.48 370.68 C 1359.60 366.37 1350.25 367.10 1341.59 367.21 Z" />
<path fill="#f9fbfc" opacity="1.00" d=" M 37.09 301.12 C 45.67 293.38 57.64 289.61 69.10 291.28 C 78.06 292.17 86.23 296.28 94.99 298.05 C 99.64 299.10 104.14 297.08 108.19 295.02 C 103.25 307.92 97.89 320.68 92.59 333.44 C 91.14 323.77 89.32 313.20 81.95 306.10 C 72.97 297.37 57.16 299.07 48.87 307.95 C 40.45 316.79 37.34 329.21 35.89 341.00 C 34.62 353.25 34.75 365.70 36.68 377.88 C 38.74 390.41 43.78 403.99 55.43 410.55 C 64.78 416.08 75.97 414.72 86.34 414.88 C 86.34 397.55 86.35 380.22 86.34 362.89 C 77.17 362.73 67.98 363.26 58.84 362.50 C 54.98 361.98 49.64 359.44 50.52 354.78 C 53.38 356.71 56.32 358.89 59.93 358.95 C 68.72 359.53 77.54 359.08 86.35 359.22 C 86.35 357.64 86.35 356.06 86.35 354.48 C 77.57 354.45 68.78 354.54 60.00 354.44 C 56.46 354.39 52.46 353.68 50.11 350.78 C 47.36 347.41 47.32 342.57 48.41 338.56 C 49.41 335.36 52.14 331.71 55.92 332.48 C 60.30 333.59 61.59 339.24 59.92 342.98 C 59.11 344.99 56.60 344.93 54.89 345.70 C 55.35 347.03 56.85 346.86 57.99 346.91 C 76.87 346.94 95.75 346.84 114.63 346.96 C 111.03 351.89 106.94 356.43 103.13 361.20 C 103.13 377.75 103.13 394.31 103.13 410.86 C 106.19 414.03 109.04 417.40 112.27 420.39 C 110.57 417.59 108.26 415.20 106.69 412.32 C 106.61 395.83 106.60 379.34 106.70 362.85 C 109.31 358.36 113.16 354.48 116.31 350.27 C 116.89 351.20 117.47 352.14 118.06 353.09 C 115.25 356.64 112.43 360.19 109.53 363.68 C 109.42 378.79 109.53 393.90 109.47 409.01 C 109.09 411.37 110.99 413.05 112.15 414.87 C 115.85 420.20 119.70 425.43 123.25 430.87 C 102.18 430.74 81.11 430.66 60.04 430.95 C 54.56 431.40 49.32 428.63 45.69 424.68 C 47.64 424.18 49.32 425.31 51.09 425.85 C 54.56 427.13 58.30 427.50 61.98 427.59 C 80.46 427.49 98.95 427.57 117.44 427.54 C 116.30 425.80 115.08 424.11 113.85 422.44 C 99.91 422.88 85.95 422.50 72.01 422.63 C 62.75 422.58 52.83 423.24 44.44 418.60 C 36.80 414.19 30.87 407.30 26.18 399.93 C 16.19 383.57 14.56 363.57 16.44 344.88 C 18.04 328.55 24.43 312.03 37.09 301.12 Z" />
<path fill="#f9fbfc" opacity="1.00" d=" M 244.32 291.69 C 257.55 291.43 270.80 291.51 284.04 291.65 C 280.47 296.53 276.57 301.15 272.89 305.94 C 272.90 341.03 272.93 376.11 272.88 411.20 C 275.92 414.47 279.01 417.70 282.12 420.91 C 280.30 418.07 278.20 415.43 276.26 412.68 C 276.27 377.77 276.25 342.86 276.27 307.95 C 276.10 306.68 277.17 305.81 277.82 304.89 C 280.55 301.68 283.11 298.34 285.84 295.13 C 286.28 295.78 287.15 297.08 287.59 297.73 C 284.75 301.15 282.01 304.67 279.16 308.09 C 279.21 342.38 279.08 376.69 279.23 410.99 C 283.30 417.81 288.53 424.10 293.08 430.70 C 278.70 431.27 264.27 430.75 249.87 430.96 C 249.12 429.84 248.35 428.72 247.63 427.60 C 260.78 427.47 273.94 427.58 287.09 427.54 C 285.90 425.92 284.71 424.30 283.67 422.59 C 270.55 422.58 257.42 422.82 244.31 422.46 C 247.44 418.88 250.87 415.58 254.18 412.17 C 254.93 411.28 256.19 410.48 255.89 409.12 C 255.85 374.40 255.97 339.67 255.83 304.95 C 252.29 300.30 247.97 296.26 244.32 291.69 Z" />
<path fill="#f9fbfc" opacity="1.00" d=" M 299.94 291.66 C 313.30 291.48 326.67 291.47 340.03 291.66 C 336.32 296.61 331.98 301.09 328.34 306.09 C 328.16 342.07 328.32 378.06 328.27 414.05 C 329.53 414.17 330.79 414.30 332.06 414.43 C 332.07 378.92 332.05 343.41 332.07 307.89 C 331.82 306.49 332.92 305.54 333.68 304.55 C 336.23 301.49 338.63 298.32 341.14 295.25 C 341.66 296.17 342.18 297.10 342.71 298.04 C 340.01 301.39 337.39 304.80 334.70 308.15 C 334.68 343.58 334.70 379.01 334.69 414.43 C 343.26 415.33 353.06 414.96 359.76 408.79 C 366.59 402.32 368.25 392.55 369.98 383.73 C 374.15 397.11 377.95 410.99 386.20 422.56 C 357.42 422.59 328.62 422.84 299.85 422.43 C 303.53 418.25 307.89 414.65 311.38 410.32 C 311.47 375.21 311.38 340.10 311.42 304.98 C 307.60 300.53 303.61 296.23 299.94 291.66 Z" />
<path fill="#f9fbfc" opacity="1.00" d=" M 395.96 291.69 C 409.33 291.43 422.72 291.51 436.10 291.65 C 432.46 296.72 427.81 301.10 424.43 306.30 C 424.26 342.19 424.43 378.09 424.34 413.99 C 425.59 414.14 426.84 414.30 428.11 414.46 C 428.15 378.60 428.02 342.75 428.17 306.89 C 431.03 302.97 433.98 298.78 437.49 295.47 C 437.79 296.11 438.40 297.38 438.70 298.01 C 436.18 301.48 433.43 304.77 430.79 308.14 C 430.73 343.57 430.78 379.00 430.76 414.43 C 439.33 415.33 449.11 414.95 455.83 408.82 C 462.69 402.36 464.22 392.61 466.13 383.85 C 470.19 397.23 474.15 410.97 482.22 422.59 C 455.15 422.69 428.07 422.58 401.00 422.64 C 399.30 422.65 397.61 422.57 395.94 422.42 C 399.59 418.21 404.14 414.65 407.43 410.22 C 407.55 375.13 407.44 340.04 407.48 304.96 C 403.64 300.53 399.74 296.16 395.96 291.69 Z" />
<path fill="#f9fbfc" opacity="1.00" d=" M 816.43 291.71 C 829.65 291.40 842.89 291.54 856.12 291.64 C 852.59 296.55 848.65 301.16 844.95 305.93 C 844.91 341.01 844.96 376.08 844.92 411.15 C 847.96 414.40 851.04 417.61 854.10 420.84 C 852.36 418.00 850.29 415.39 848.36 412.70 C 848.38 382.78 848.36 352.86 848.37 322.94 C 848.52 317.55 848.06 312.11 848.56 306.74 C 851.53 302.76 854.82 299.02 857.93 295.14 C 858.37 295.78 859.26 297.07 859.70 297.71 C 856.89 301.22 854.01 304.68 851.20 308.19 C 851.22 339.80 851.20 371.41 851.21 403.01 C 851.30 405.85 850.93 408.74 851.42 411.54 C 855.91 417.97 860.57 424.29 865.15 430.67 C 850.79 431.29 836.37 430.75 821.99 430.94 C 821.21 429.85 820.43 428.75 819.69 427.65 C 832.85 427.40 846.03 427.61 859.20 427.54 C 857.98 425.91 856.79 424.26 855.69 422.57 C 842.60 422.55 829.49 422.91 816.42 422.39 C 820.05 418.32 824.06 414.61 827.72 410.58 C 828.47 406.13 827.86 401.52 828.06 397.01 C 827.89 366.35 828.25 335.67 827.89 305.03 C 824.51 300.28 820.04 296.32 816.43 291.71 Z" />
<path fill="#f9fbfc" opacity="1.00" d=" M 962.20 291.61 C 995.23 291.49 1028.27 291.54 1061.31 291.59 C 1056.89 302.10 1051.49 312.29 1049.14 323.55 L 1048.09 323.03 C 1046.35 316.68 1045.29 309.47 1040.23 304.75 C 1034.56 299.95 1026.57 300.99 1019.71 301.42 C 1019.72 337.94 1019.71 374.46 1019.71 410.99 C 1022.93 414.88 1026.57 418.43 1029.48 422.57 C 1016.76 422.67 1004.05 422.65 991.34 422.58 C 994.70 417.98 999.33 414.46 1002.82 409.97 C 1002.97 376.53 1002.85 343.07 1002.88 309.62 C 997.22 309.54 990.58 308.80 986.10 313.01 C 982.37 317.08 981.91 322.93 981.44 328.18 C 980.76 328.16 979.41 328.14 978.74 328.13 C 979.42 321.80 979.98 314.53 984.87 309.86 C 989.79 305.64 996.74 306.00 1002.81 306.33 C 1002.86 304.85 1002.86 303.38 1002.91 301.91 C 995.91 301.15 987.93 300.55 981.97 305.01 C 976.18 309.80 975.61 317.98 975.14 324.93 L 973.78 324.62 C 970.73 313.35 966.81 302.33 962.20 291.61 Z" />
<path fill="#f9fbfc" opacity="1.00" d=" M 1108.69 291.64 C 1121.55 291.49 1134.42 291.48 1147.29 291.65 C 1144.53 295.84 1141.51 299.85 1138.67 303.98 C 1143.08 318.57 1147.46 333.18 1151.91 347.76 C 1152.84 346.74 1155.50 346.07 1154.13 344.18 C 1150.27 331.40 1146.40 318.63 1142.56 305.85 C 1145.50 301.59 1148.49 297.36 1151.43 293.09 C 1152.29 293.52 1153.16 293.95 1154.05 294.38 C 1151.53 298.65 1148.46 302.55 1145.75 306.68 C 1149.55 319.04 1153.24 331.43 1156.97 343.82 C 1159.40 341.50 1161.64 339.00 1163.98 336.58 C 1165.34 343.99 1167.60 351.21 1170.71 358.09 C 1165.87 357.78 1160.61 357.69 1156.36 360.35 C 1155.68 361.51 1156.70 362.80 1156.85 363.99 C 1161.54 379.35 1165.85 394.84 1170.68 410.15 C 1174.66 414.43 1179.15 418.21 1183.21 422.42 C 1169.07 422.79 1154.89 422.72 1140.75 422.46 C 1144.50 418.32 1148.47 414.38 1152.28 410.30 C 1149.28 400.69 1146.35 391.06 1143.44 381.43 C 1138.28 387.98 1133.64 394.95 1129.93 402.43 C 1129.30 402.32 1128.06 402.09 1127.43 401.98 C 1131.30 393.41 1136.95 385.82 1142.57 378.34 C 1142.09 377.05 1141.64 375.76 1141.19 374.48 C 1134.66 381.34 1129.45 389.34 1125.22 397.80 C 1121.15 389.96 1117.13 382.04 1112.10 374.77 C 1108.31 386.00 1104.42 398.04 1106.95 409.98 C 1109.17 417.68 1114.40 424.00 1118.27 430.90 C 1103.29 430.93 1088.31 431.02 1073.34 430.85 C 1072.78 429.76 1072.23 428.66 1071.71 427.57 C 1085.48 427.50 1099.25 427.56 1113.02 427.54 C 1108.82 420.94 1103.86 414.19 1103.38 406.09 C 1102.56 394.22 1106.58 382.76 1109.95 371.56 C 1108.92 370.25 1107.87 368.97 1106.74 367.77 C 1104.74 374.41 1103.10 381.15 1101.35 387.85 C 1099.64 394.54 1098.40 401.73 1100.42 408.50 C 1102.24 413.78 1106.02 418.02 1109.23 422.50 C 1095.26 422.72 1081.28 422.71 1067.32 422.50 C 1074.85 416.99 1081.71 410.34 1086.00 401.95 C 1092.56 389.18 1096.43 375.23 1099.82 361.35 C 1096.35 358.27 1091.90 356.67 1087.35 356.09 C 1090.20 350.24 1092.77 344.23 1094.53 337.95 C 1097.68 341.43 1100.58 345.15 1104.00 348.39 C 1104.42 347.14 1104.86 345.89 1105.31 344.65 C 1102.50 341.56 1099.64 338.52 1096.67 335.60 C 1097.19 334.65 1097.73 333.70 1098.29 332.76 C 1101.29 335.20 1103.99 337.99 1106.64 340.82 C 1110.17 328.40 1113.84 316.02 1117.47 303.63 C 1114.60 299.59 1111.46 295.75 1108.69 291.64 M 1122.92 313.94 C 1118.70 327.72 1114.53 341.52 1110.32 355.31 C 1116.02 362.49 1120.77 370.35 1125.25 378.34 C 1126.07 377.14 1126.89 375.93 1127.75 374.74 C 1124.09 367.68 1119.62 361.05 1114.45 355.03 C 1117.70 344.32 1120.94 333.61 1124.24 322.92 C 1125.61 319.90 1123.67 316.85 1122.92 313.94 M 1126.64 325.62 C 1123.73 335.05 1120.86 344.49 1118.00 353.94 C 1122.19 359.73 1126.28 365.63 1129.42 372.09 C 1131.99 368.58 1134.54 365.04 1137.47 361.81 C 1133.87 349.74 1130.25 337.68 1126.64 325.62 Z" />
<path fill="#f9fbfc" opacity="1.00" d=" M 1202.45 291.66 C 1216.57 291.52 1230.71 291.38 1244.83 291.74 C 1241.00 295.11 1237.08 298.38 1233.08 301.55 C 1245.73 333.12 1259.23 364.36 1271.69 396.00 C 1271.74 392.13 1272.40 388.13 1271.46 384.35 C 1260.28 357.25 1249.08 330.15 1237.90 303.05 C 1241.86 299.72 1245.80 296.37 1249.77 293.04 C 1250.25 293.65 1251.21 294.86 1251.69 295.46 C 1248.38 298.43 1244.91 301.23 1241.53 304.12 C 1251.53 328.84 1261.97 353.40 1271.68 378.24 C 1272.16 364.50 1271.76 350.74 1271.89 337.00 C 1271.74 326.52 1272.44 315.88 1270.24 305.56 C 1268.80 299.07 1262.84 295.32 1257.84 291.70 C 1270.56 291.45 1283.30 291.45 1296.03 291.69 C 1291.35 295.40 1285.73 298.58 1283.15 304.23 C 1280.19 311.07 1279.76 318.65 1279.66 326.01 C 1279.63 358.21 1279.67 390.41 1279.63 422.61 C 1274.88 422.64 1270.13 422.63 1265.39 422.62 C 1252.71 391.97 1239.94 361.35 1227.33 330.67 C 1227.26 342.44 1227.31 354.22 1227.30 365.99 C 1227.38 379.05 1226.81 392.17 1228.51 405.15 C 1229.43 410.67 1232.33 415.67 1236.46 419.41 C 1233.17 419.17 1230.90 416.15 1229.20 413.61 C 1225.02 406.18 1224.53 397.36 1224.51 389.02 C 1224.59 367.71 1224.58 346.39 1224.54 325.08 C 1223.79 321.56 1221.90 318.38 1220.68 315.01 C 1220.70 329.99 1220.68 344.98 1220.69 359.97 C 1220.71 373.00 1220.44 386.07 1221.81 399.05 C 1222.47 404.28 1223.18 409.98 1226.88 414.07 C 1229.54 417.33 1233.41 419.14 1237.15 420.88 C 1239.97 423.95 1242.26 427.50 1244.74 430.86 C 1229.76 431.05 1214.78 430.87 1199.80 430.95 C 1199.27 429.83 1198.77 428.72 1198.29 427.61 C 1211.83 427.46 1225.38 427.58 1238.93 427.54 C 1237.68 425.90 1236.46 424.26 1235.23 422.62 C 1222.42 422.55 1209.60 422.79 1196.79 422.51 C 1201.74 419.42 1207.32 416.49 1209.89 410.92 C 1213.26 403.21 1213.24 394.58 1213.52 386.32 C 1213.58 358.68 1213.53 331.04 1213.55 303.41 C 1209.86 299.48 1205.96 295.75 1202.45 291.66 Z" />
<path fill="#f9fbfc" opacity="1.00" d=" M 1418.88 291.66 C 1432.04 291.44 1445.22 291.54 1458.39 291.61 C 1455.58 295.63 1452.26 299.25 1449.19 303.06 C 1448.34 304.23 1446.89 305.26 1447.16 306.89 C 1447.22 334.26 1446.98 361.64 1447.34 389.01 C 1447.53 395.78 1448.10 403.14 1452.29 408.76 C 1456.96 414.48 1465.08 415.40 1471.99 414.89 C 1478.76 414.57 1485.51 410.51 1487.81 403.93 C 1490.52 395.92 1490.66 387.35 1491.00 378.98 C 1491.27 354.88 1491.18 330.78 1491.45 306.67 C 1487.14 301.66 1482.63 296.81 1478.47 291.68 C 1490.37 291.44 1502.30 291.50 1514.22 291.66 C 1509.51 296.85 1504.33 301.60 1499.43 306.60 C 1499.31 333.06 1499.63 359.52 1499.24 385.98 C 1498.79 395.53 1498.81 406.01 1492.95 414.10 C 1487.76 421.34 1478.49 424.13 1469.95 424.41 C 1460.00 424.81 1449.09 423.35 1441.40 416.45 C 1436.53 412.21 1433.90 406.04 1432.62 399.83 C 1429.83 387.10 1430.21 373.98 1430.18 361.03 C 1430.14 342.26 1430.25 323.49 1430.13 304.73 C 1426.76 300.09 1422.41 296.20 1418.88 291.66 Z" />
<path fill="#f9fbfc" opacity="1.00" d=" M 1525.64 291.61 C 1538.98 291.54 1552.32 291.43 1565.66 291.67 C 1561.87 296.56 1557.80 301.21 1553.89 306.00 C 1553.89 342.01 1553.89 378.02 1553.89 414.03 C 1554.84 414.14 1556.74 414.35 1557.68 414.45 C 1557.69 378.52 1557.70 342.59 1557.68 306.66 C 1560.67 302.86 1563.78 299.13 1566.71 295.27 C 1567.26 296.17 1567.81 297.08 1568.39 297.99 C 1565.70 301.42 1562.95 304.81 1560.31 308.27 C 1560.37 343.67 1560.31 379.06 1560.34 414.45 C 1568.78 415.29 1578.35 414.98 1585.07 409.10 C 1592.16 402.66 1593.92 392.70 1595.59 383.72 C 1599.90 397.03 1603.46 411.03 1611.89 422.47 C 1583.15 422.80 1554.38 422.61 1525.63 422.56 C 1528.53 418.87 1532.10 415.79 1535.33 412.39 C 1536.12 411.46 1537.42 410.57 1537.09 409.13 C 1537.09 374.42 1537.10 339.71 1537.09 305.00 C 1533.30 300.52 1529.18 296.30 1525.64 291.61 Z" />
<path fill="#f9fbfc" opacity="1.00" d=" M 1450.70 306.23 C 1454.00 302.46 1456.90 298.36 1460.40 294.77 C 1460.71 295.43 1461.32 296.75 1461.63 297.41 C 1459.16 300.97 1456.20 304.17 1453.64 307.66 C 1453.69 335.09 1453.62 362.53 1453.67 389.96 C 1455.04 395.93 1454.78 402.84 1459.27 407.57 C 1460.59 409.61 1463.23 411.04 1463.33 413.69 C 1458.78 411.48 1454.86 407.72 1453.20 402.87 C 1450.84 396.19 1450.77 389.00 1450.68 382.00 C 1450.69 356.74 1450.65 331.48 1450.70 306.23 Z" />
<path fill="#f9fbfc" opacity="1.00" d=" M 952.04 295.46 C 952.91 296.01 953.80 296.57 954.70 297.13 C 949.51 307.78 945.74 319.04 941.34 330.03 C 940.40 329.63 939.49 329.20 938.63 328.70 C 942.75 317.48 947.44 306.49 952.04 295.46 Z" />
<path fill="#f9fbfc" opacity="1.00" d=" M 1051.73 327.19 C 1055.11 316.45 1057.96 305.17 1064.52 295.84 C 1064.99 296.47 1065.95 297.72 1066.43 298.34 C 1060.66 308.03 1057.43 318.92 1054.03 329.59 C 1053.25 328.79 1052.48 327.99 1051.73 327.19 Z" />
<path fill="#f9fbfc" opacity="1.00" d=" M 1502.81 308.93 C 1506.95 304.67 1511.16 300.45 1515.30 296.17 C 1515.71 296.85 1516.54 298.21 1516.96 298.89 C 1513.19 302.68 1509.54 306.60 1505.75 310.37 C 1505.51 336.22 1506.04 362.09 1505.45 387.93 C 1504.69 398.90 1504.95 410.93 1498.35 420.33 C 1493.63 427.47 1485.51 431.81 1477.11 432.83 C 1467.08 434.05 1456.28 433.03 1447.52 427.61 C 1444.46 425.53 1441.26 423.25 1439.54 419.87 C 1443.63 422.38 1447.39 425.53 1452.03 427.05 C 1461.41 430.34 1471.87 430.82 1481.49 428.25 C 1490.89 425.74 1498.17 417.60 1500.25 408.19 C 1502.35 398.61 1502.62 388.75 1502.80 378.99 C 1502.82 355.63 1502.80 332.28 1502.81 308.93 Z" />
<path fill="#f9fbfc" opacity="1.00" d=" M 1286.03 308.08 C 1287.97 302.77 1293.52 299.81 1298.85 299.03 C 1298.38 303.80 1292.94 303.39 1290.53 306.54 C 1286.65 311.06 1286.79 317.46 1286.44 323.08 C 1286.34 359.03 1286.45 394.98 1286.38 430.94 C 1280.37 430.93 1274.36 430.94 1268.35 430.93 C 1268.04 430.10 1267.43 428.43 1267.12 427.60 C 1272.63 427.49 1278.15 427.56 1283.67 427.55 C 1283.67 395.37 1283.67 363.20 1283.67 331.02 C 1283.70 323.35 1283.38 315.40 1286.03 308.08 Z" />
<path fill="#f9fbfc" opacity="1.00" d=" M 110.81 300.17 C 111.34 300.66 112.40 301.63 112.93 302.12 C 108.45 313.64 103.51 325.00 99.00 336.52 C 98.36 336.17 97.08 335.48 96.44 335.13 C 101.21 323.47 105.95 311.80 110.81 300.17 Z" />
<path fill="#f9fbfc" opacity="1.00" d=" M 217.28 302.65 C 221.44 306.29 223.68 311.67 225.06 316.91 C 227.41 327.15 226.29 338.56 220.37 347.43 C 215.99 354.15 209.36 359.05 202.32 362.70 C 206.25 378.13 213.20 392.71 222.23 405.79 C 227.44 413.28 233.97 419.75 240.98 425.55 C 240.92 425.71 240.80 426.02 240.74 426.18 C 227.80 430.64 215.62 437.27 204.91 445.81 C 204.26 445.06 203.62 444.30 202.98 443.54 C 212.80 435.58 223.85 429.03 235.83 424.92 C 216.78 408.29 205.99 384.49 198.71 360.76 C 207.10 356.78 215.06 350.99 219.54 342.66 C 224.77 333.00 225.06 321.02 220.93 310.91 C 219.85 308.09 218.39 305.45 217.28 302.65 Z" />
<path fill="#f9fbfc" opacity="1.00" d=" M 901.50 305.41 C 912.17 298.26 929.42 305.40 931.16 318.25 C 927.42 314.82 924.43 310.43 919.73 308.18 C 914.56 305.36 907.53 304.94 902.77 308.80 C 896.88 313.46 895.45 322.52 899.17 328.95 C 900.95 332.49 903.99 335.12 906.44 338.18 C 904.33 338.95 902.71 336.91 901.15 335.87 C 891.82 328.64 891.78 312.30 901.50 305.41 Z" />
<path fill="#f9fbfc" opacity="1.00" d=" M 46.24 320.22 C 49.53 312.90 55.69 306.12 63.98 304.90 C 73.49 302.84 83.87 308.82 87.09 317.87 C 81.70 313.71 76.21 308.64 69.05 308.20 C 61.22 307.59 54.10 312.70 50.23 319.20 C 44.85 328.11 43.87 338.80 43.32 348.97 C 42.95 360.69 42.97 372.53 45.13 384.09 C 46.64 392.46 50.56 400.37 56.37 406.60 C 57.22 407.83 59.14 408.80 58.26 410.64 C 50.11 404.84 45.12 395.55 42.92 385.95 C 40.44 375.49 39.95 364.68 40.06 353.97 C 40.16 342.51 41.39 330.73 46.24 320.22 Z" />
<path fill="#f9fbfc" opacity="1.00" d=" M 1023.25 306.10 C 1028.18 306.12 1033.25 305.67 1038.04 307.11 C 1041.44 308.09 1043.77 311.25 1044.64 314.57 C 1039.30 310.64 1032.65 308.70 1026.05 309.61 C 1026.04 343.53 1026.11 377.47 1026.40 411.39 C 1030.55 418.02 1035.33 424.24 1039.42 430.91 C 1025.58 430.97 1011.73 430.93 997.88 430.94 C 996.18 430.93 995.87 428.65 994.92 427.62 C 1007.89 427.44 1020.88 427.60 1033.86 427.54 C 1030.37 422.55 1026.75 417.64 1023.39 412.57 C 1023.08 377.09 1023.36 341.59 1023.25 306.10 Z" />
<path fill="#f9fbfc" opacity="1.00" d=" M 1168.11 339.51 C 1169.15 340.20 1170.20 340.92 1171.24 341.66 C 1173.10 350.59 1176.81 358.96 1180.39 367.30 C 1174.78 366.99 1169.21 365.72 1163.59 366.05 C 1168.12 380.69 1172.39 395.42 1177.01 410.03 C 1182.77 417.30 1189.67 423.66 1195.50 430.91 C 1179.44 430.91 1163.38 431.05 1147.33 430.84 C 1146.80 429.75 1146.29 428.66 1145.79 427.58 C 1160.12 427.49 1174.45 427.57 1188.78 427.54 C 1184.08 422.14 1178.86 417.15 1174.50 411.50 C 1169.62 395.51 1164.57 379.54 1160.00 363.46 C 1165.22 362.13 1170.65 362.61 1175.91 363.39 C 1172.54 355.72 1169.50 347.81 1168.11 339.51 Z" />
<path fill="#f9fbfc" opacity="1.00" d=" M 880.45 353.92 C 883.92 354.69 884.87 358.54 887.65 360.32 C 892.93 364.19 899.42 365.66 905.55 367.62 C 913.15 370.01 920.91 372.11 928.11 375.58 C 932.79 377.73 936.49 382.26 937.03 387.46 C 934.84 386.20 933.70 383.84 931.84 382.23 C 928.83 379.30 924.83 377.79 920.95 376.40 C 911.60 373.16 901.89 370.99 892.77 367.08 C 886.92 364.92 881.36 360.46 880.45 353.92 Z" />
<path fill="#f9fbfc" opacity="1.00" d=" M 948.92 357.27 C 954.71 362.05 958.20 369.17 959.70 376.44 C 962.48 391.01 959.36 407.10 949.51 418.48 C 942.15 427.57 930.79 433.49 918.98 433.21 C 908.61 433.66 898.93 429.59 889.16 426.78 C 883.31 425.09 876.70 424.79 871.28 427.92 C 870.98 427.03 870.39 425.26 870.10 424.37 C 878.27 419.38 888.00 422.86 896.37 425.42 C 906.44 428.79 917.39 431.19 927.92 428.52 C 940.30 425.33 949.93 415.07 954.60 403.45 C 959.39 390.68 958.97 375.66 952.24 363.64 C 951.17 361.50 949.20 359.73 948.92 357.27 Z" />
<path fill="#f9fbfc" opacity="1.00" d=" M 1394.99 366.18 L 1396.16 364.93 C 1403.11 371.62 1405.30 381.66 1405.22 390.98 C 1405.42 402.60 1401.47 414.75 1392.68 422.68 C 1385.76 428.90 1376.14 431.08 1367.04 430.94 C 1348.50 430.87 1329.95 431.08 1311.42 430.83 C 1310.93 429.75 1310.45 428.68 1309.99 427.62 C 1325.65 427.44 1341.33 427.59 1357.00 427.54 C 1365.17 427.56 1373.53 427.63 1381.44 425.27 C 1390.88 422.27 1398.08 413.91 1400.64 404.46 C 1403.46 394.03 1403.28 382.45 1398.48 372.63 C 1397.45 370.40 1395.91 368.45 1394.99 366.18 Z" />
<path fill="#f9fbfc" opacity="1.00" d=" M 888.50 387.50 C 889.18 387.28 890.54 386.85 891.22 386.63 C 892.83 396.48 897.35 406.52 906.15 411.92 C 906.69 412.40 908.88 413.48 906.99 414.11 C 895.73 410.38 889.98 398.55 888.50 387.50 Z" />
<path fill="#f9fbfc" opacity="1.00" d=" M 376.51 389.34 C 377.28 389.67 378.82 390.31 379.59 390.63 C 383.39 401.29 388.00 411.73 394.05 421.32 C 392.93 424.53 391.52 427.63 390.39 430.84 C 361.72 430.98 333.03 431.05 304.35 430.81 C 303.66 429.75 302.97 428.70 302.27 427.66 C 331.14 427.42 360.01 427.56 388.88 427.59 C 389.69 425.61 390.43 423.61 391.18 421.62 C 384.85 411.61 379.62 400.79 376.51 389.34 Z" />
<path fill="#f9fbfc" opacity="1.00" d=" M 472.58 389.31 C 473.33 389.65 474.82 390.33 475.56 390.67 C 479.51 401.20 484.11 411.51 489.89 421.18 C 489.40 424.59 487.44 427.71 486.30 430.98 C 458.15 430.88 430.00 430.96 401.85 430.94 C 399.90 431.11 399.38 428.80 398.31 427.69 C 427.20 427.37 456.10 427.60 485.00 427.57 C 485.78 425.59 486.51 423.59 487.27 421.60 C 480.92 411.60 475.70 400.76 472.58 389.31 Z" />
<path fill="#f9fbfc" opacity="1.00" d=" M 1602.15 389.35 C 1602.94 389.68 1604.51 390.36 1605.30 390.69 C 1608.97 401.47 1613.88 411.79 1619.72 421.56 C 1618.40 424.66 1617.16 427.79 1615.93 430.93 C 1587.36 430.96 1558.79 430.92 1530.22 430.94 C 1529.43 429.84 1528.66 428.73 1527.93 427.62 C 1556.81 427.44 1585.71 427.59 1614.60 427.55 C 1615.33 425.58 1616.06 423.61 1616.85 421.66 C 1610.53 411.62 1605.29 400.81 1602.15 389.35 Z" />
<path fill="#f9fbfc" opacity="1.00" d=" M 492.22 448.63 C 492.55 448.26 493.22 447.53 493.56 447.16 C 513.73 467.81 533.54 488.83 552.65 510.47 C 558.05 516.76 564.48 522.79 566.85 531.00 C 568.68 536.88 567.21 543.12 565.39 548.82 C 577.33 562.78 589.83 576.25 602.07 589.94 C 616.55 605.84 630.89 621.86 646.01 637.14 C 660.55 621.64 675.09 606.14 689.66 590.66 C 701.12 578.75 711.80 566.14 722.87 553.87 C 751.87 521.20 780.87 488.53 809.89 455.88 C 812.07 453.44 814.66 450.95 818.03 450.42 C 820.31 450.00 822.99 451.51 823.11 454.00 C 824.06 460.95 821.55 467.78 819.07 474.16 C 812.54 489.69 803.07 503.77 793.25 517.39 C 773.75 543.93 751.77 568.53 729.14 592.41 C 723.09 592.33 717.04 592.25 711.00 592.23 C 694.21 612.28 677.22 632.15 660.38 652.16 C 664.67 656.96 669.55 661.24 673.53 666.32 C 654.59 669.18 635.31 669.77 616.19 668.84 C 621.76 663.08 627.13 657.13 632.64 651.32 C 606.78 620.02 579.69 589.77 553.12 559.08 C 547.86 560.44 542.19 561.38 536.93 559.49 C 528.97 556.90 522.10 551.54 516.95 545.01 C 498.31 522.05 479.47 499.23 460.90 476.21 C 461.31 475.92 462.14 475.33 462.55 475.04 C 480.45 493.29 498.39 511.50 516.36 529.69 C 518.02 531.95 521.02 528.88 519.17 527.17 C 503.10 507.12 486.94 487.12 470.81 467.12 C 471.19 466.76 471.95 466.06 472.33 465.71 C 490.44 484.32 508.58 502.91 526.65 521.57 C 527.73 522.85 529.44 523.12 531.02 523.29 C 530.81 521.83 531.28 520.12 530.11 518.98 C 514.01 498.32 497.64 477.85 481.76 457.03 C 482.21 456.80 483.10 456.34 483.54 456.11 C 501.07 474.77 518.72 493.33 536.28 511.95 C 538.08 514.20 541.03 511.00 538.98 509.22 C 523.42 489.00 507.75 468.87 492.22 448.63 Z" />
</g>
<g id="#1b8218ff">
<path fill="#1b8218" opacity="1.00" d=" M 307.78 442.01 C 319.90 442.00 332.02 441.99 344.13 442.01 C 351.37 476.81 365.49 510.14 385.32 539.63 C 424.91 598.93 487.22 642.21 556.24 659.72 C 575.85 664.76 595.97 667.84 616.19 668.84 C 635.31 669.77 654.59 669.18 673.53 666.32 C 740.12 657.69 803.38 625.34 849.35 576.38 C 884.55 539.16 909.49 492.22 919.87 442.01 C 931.99 442.00 944.10 442.00 956.22 442.01 C 946.13 497.23 920.39 549.34 883.28 591.39 C 843.16 637.14 789.97 671.13 731.80 688.85 C 655.07 712.39 569.96 707.86 496.40 675.62 C 436.52 649.61 384.49 605.48 349.89 550.03 C 329.23 517.10 314.82 480.25 307.78 442.01 Z" />
</g>
</svg>
